<svg xmlns="http://www.w3.org/2000/svg">
	<path d="M 5 25 a 25 25 0 1 1 30 50 L 25 50 Z" stroke="brown" stroke-width="2" fill="#f7ca2a" />
	<circle cx="30" cy="30" r="2" fill="#f7642a" />
	<circle cx="25" cy="32" r="2" fill="#f7642a" />
	<circle cx="20" cy="28" r="2" fill="#f7642a" />
	<circle cx="26" cy="38" r="2" fill="#f7642a" />
	<circle cx="33" cy="39" r="2" fill="#f7642a" />
	<circle cx="35" cy="34" r="2" fill="#f7642a" />
	<circle cx="29" cy="45" r="2" fill="#f7642a" />
	<circle cx="35" cy="47" r="2" fill="#f7642a" />
	<circle cx="39" cy="41" r="2" fill="#f7642a" />
	<circle cx="32" cy="54" r="2" fill="#f7642a" />
	<circle cx="46" cy="50" r="2" fill="#f7642a" />
	<circle cx="43" cy="57" r="2" fill="#f7642a" />
	<circle cx="40" cy="53" r="2" fill="#f7642a" />
	<circle cx="38" cy="59" r="2" fill="#f7642a" />
	<circle cx="40" cy="53" r="2" fill="#f7642a" />
	<circle cx="40" cy="53" r="2" fill="#f7642a" />
	<path d="M 25 35 A 5 4 0 1 1 32 35 A 5 4 90 1 1 32 42 A 5 4 0 1 1 25 42 A 5 4 90 1 1 25 35" stroke="green"
		stroke-width="1.5" fill="none" />
</svg>
